<?xml version="1.0" encoding="UTF-8" standalone="no"?>
<svg
   xmlns:dc="http://purl.org/dc/elements/1.1/"
   xmlns:cc="http://creativecommons.org/ns#"
   xmlns:rdf="http://www.w3.org/1999/02/22-rdf-syntax-ns#"
   xmlns:svg="http://www.w3.org/2000/svg"
   xmlns="http://www.w3.org/2000/svg"
   xmlns:sodipodi="http://sodipodi.sourceforge.net/DTD/sodipodi-0.dtd"
   xmlns:inkscape="http://www.inkscape.org/namespaces/inkscape"
   version="1.1"
   id="svg2"
   width="212.8"
   height="151.36"
   viewBox="0 0 212.8 151.36"
   sodipodi:docname="mch-logo-outlined.svg"
   inkscape:version="0.92.4 (ca053d0, 2019-01-16)">
  <sodipodi:namedview
     pagecolor="#ffffff"
     bordercolor="#666666"
     borderopacity="1"
     objecttolerance="10"
     gridtolerance="10"
     guidetolerance="10"
     inkscape:pageopacity="0"
     inkscape:pageshadow="2"
     inkscape:window-width="1257"
     inkscape:window-height="755"
     id="namedview11"
     showgrid="false"
     inkscape:zoom="1.5591966"
     inkscape:cx="106.4"
     inkscape:cy="75.68"
     inkscape:window-x="0"
     inkscape:window-y="27"
     inkscape:window-maximized="0"
     inkscape:current-layer="svg2" />
  <metadata
     id="metadata8">
    <rdf:RDF>
      <cc:Work
         rdf:about="">
        <dc:format>image/svg+xml</dc:format>
        <dc:type
           rdf:resource="http://purl.org/dc/dcmitype/StillImage" />
        <dc:title />
      </cc:Work>
    </rdf:RDF>
  </metadata>
  <defs
     id="defs6" />
  <path
     style="fill:#63defc;stroke-width:0.31999999;fill-opacity:1"
     d="M 3.7333334,149.54667 C 3.616,149.42933 3.52,148.55842 3.52,147.6113 c 0,-2.27948 1.3353917,-4.3874 5.2421043,-8.27468 8.7655377,-8.72193 22.3889957,-16.98858 33.3692497,-20.24833 6.387075,-1.89615 8.043353,-2.12582 15.308646,-2.12276 5.890301,0.003 7.067738,0.0909 9.536432,0.71654 4.86263,1.23227 9.017738,3.44065 13.183568,7.00687 6.14272,5.25857 11.734218,8.37201 16.53192,9.20524 5.28663,0.91814 9.31118,-0.25396 22.34808,-6.50861 C 131.31981,121.49414 136.50872,120 144.68884,120 c 8.6986,0 13.36249,1.81488 21.60536,8.40738 5.90068,4.71926 9.64391,6.88105 13.19146,7.61832 3.3346,0.69301 7.79771,-0.96801 13.94115,-5.18844 1.76725,-1.21407 4.72519,-3.255 6.57319,-4.5354 3.50425,-2.42795 5.86648,-3.42186 8.13275,-3.42186 1.74204,0 2.10725,0.41844 2.10725,2.41439 0,1.38493 -0.20902,1.96978 -1.31622,3.68283 -1.76504,2.73087 -4.69198,6.04434 -8.32531,9.42476 -5.25565,4.88982 -9.86925,7.72709 -14.82003,9.11401 -2.23267,0.62547 -3.08826,0.69453 -7.04,0.56823 -3.80092,-0.12148 -4.9202,-0.28147 -7.21844,-1.03182 -3.54127,-1.15618 -6.28713,-2.55684 -9.41282,-4.80143 -4.69112,-3.36877 -6.15221,-4.27908 -8.21399,-5.11764 -4.84483,-1.97045 -9.3826,-2.28791 -14.42394,-1.00907 -3.68622,0.93509 -6.59695,2.1331 -14.66925,6.03762 -7.24055,3.5022 -12.01574,5.42191 -16.30557,6.55511 -4.39546,1.1611 -12.03524,1.37747 -16.193438,0.45862 C 85.16904,147.59964 80.79784,145.06696 70.034086,136.27416 62.592458,130.19517 55.338826,128.1084 47.857677,129.89431 41.932186,131.30884 36.669696,133.83076 24.8,140.94411 12.189851,148.5012 9.5005997,149.76 5.9660282,149.76 c -1.110649,0 -2.1153616,-0.096 -2.2326948,-0.21333 z"
     id="path4526" />
  <g
     style="fill:#8b694a;fill-opacity:1"
     id="g3720">
    <path
       id="path4524"
       style="fill:#8b694a;stroke-width:0.31999999;fill-opacity:1"
       d="m 180.27753,118.10633 c -2.32848,-1.41984 -4.3821,-4.06797 -9.86506,-12.72095 -0.87315,-1.37796 -2.67315,-3.58681 -4,-4.90856 -5.86732,-5.84475 -12.27323,-6.897236 -22.09247,-3.629786 -3.78831,1.260598 -12.83379,5.879436 -18.08,9.232076 -8.52163,5.44583 -12.11766,6.82017 -18.60541,7.11066 -6.6496,0.29774 -11.442945,-0.76854 -17.87459,-3.97618 -3.156307,-1.57414 -4.962784,-2.68292 -9.330045,-5.72663 -0.731526,-0.50983 -3.251526,-2.45263 -5.6,-4.317347 C 62.445789,89.336461 56.632554,87.231152 50.607459,90.397248 46.586419,92.510246 43.67752,95.90824 38.551731,104.48 c -4.817427,8.05609 -7.276509,10.72 -9.895743,10.72 -0.730393,0 -1.500788,-0.1728 -1.711988,-0.384 -0.242466,-0.24247 -0.383174,-1.4514 -0.381758,-3.28 0.0033,-4.2496 1.235272,-9.07348 4.514283,-17.675885 6.226041,-16.333846 8.977011,-20.524547 15.010777,-22.86671 2.225239,-0.863786 7.598298,-1.187101 9.831594,-0.591603 4.624813,1.233187 10.243974,5.052518 19.281104,13.105324 4.084442,3.639568 8.179421,7.035584 11.04,9.15561 1.408,1.043494 2.608,2.005264 2.666666,2.137264 0.05867,0.132 0.242198,0.24 0.407843,0.24 0.165648,0 1.211753,0.575082 2.324681,1.277958 4.93065,3.113988 10.62417,5.122042 14.52275,5.122042 3.78273,0 6.44857,-1.07382 12.71806,-5.122954 11.21172,-7.241043 23.07645,-13.594252 29.52715,-15.810902 5.07435,-1.743699 7.78015,-2.188288 12.48666,-2.051693 3.69176,0.107146 4.22826,0.200381 5.82619,1.01248 3.72313,1.89217 6.00134,4.857098 10.24496,13.333069 5.40796,10.80155 7.64941,16.94201 7.91614,21.68626 0.14346,2.5518 0.0866,3.05481 -0.40677,3.6 -0.75108,0.82994 -2.85218,0.83998 -4.1968,0.0201 z" />
  </g>
  <path
     style="fill:#f4cc22;stroke-width:0.31999999;fill-opacity:1"
     d="M 95.2,76.65128 C 84.235174,73.840826 74.743952,66.500019 70.409645,57.477651 68.722032,53.964688 66.88,48.11687 66.88,46.27225 c 0,-1.09202 0.05563,-1.15225 1.064221,-1.15225 1.204182,0 1.813939,0.544806 3.511641,3.13759 2.14265,3.272327 7.777821,9.262916 10.806221,11.487786 3.303571,2.42703 7.625171,4.282915 14.754768,6.336346 1.988829,0.572812 6.572599,0.519913 9.223149,-0.106439 0.792,-0.187158 2.016,-0.472774 2.72,-0.634701 3.46936,-0.797984 9.12023,-3.746131 11.76977,-6.140473 3.20717,-2.898279 5.88995,-7.575479 6.97486,-12.160109 0.52241,-2.207594 0.52137,-7.81808 -0.002,-10.56 -0.94274,-4.939223 -4.29976,-10.00833 -9.32048,-14.073889 -3.74297,-3.030895 -11.0051,-5.271516 -14.55207,-4.489825 -2.04603,0.45091 -4.47224,1.353248 -6.805338,2.530992 -3.665737,1.850458 -7.432563,6.867376 -7.421696,9.884726 0.0087,2.42295 3.047306,6.226406 6.321047,7.912185 2.164553,1.114617 2.500605,0.855494 2.803625,-2.161831 0.427088,-4.252775 1.873882,-6.146444 5.966552,-7.809443 1.71494,-0.696843 2.38433,-0.795975 4.73159,-0.700723 2.25766,0.09162 3.0965,0.284214 4.81406,1.105313 3.42072,1.635308 5.21304,3.296114 6.61645,6.130969 L 122.08,37.28 v 4.16 4.16 l -1.18075,1.92 c -1.31914,2.145024 -4.28116,5.148842 -6.08342,6.16927 -1.62909,0.922375 -5.75073,2.231229 -8.25583,2.621693 C 101.38818,57.117078 93.322403,56.472 89.833152,54.9732 86.071229,53.35727 82.071389,50.055046 79.749773,46.648467 78.481443,44.787408 76.290096,39.048214 75.823962,36.366672 75.23504,32.978781 75.58447,25.329929 76.447395,22.72 78.227498,17.336057 80.483293,14.380022 85.771091,10.502065 87.220637,9.4390016 92.309872,7.2883158 95.2,6.5174563 c 1.877629,-0.5008041 3.37888,-0.5944313 9.28,-0.5787571 6.74893,0.017926 7.15907,0.055202 9.92,0.9015712 5.21066,1.5973408 9.00156,3.2379736 11.84,5.1241356 5.39573,3.585499 10.67458,9.581957 12.89771,14.651037 2.00966,4.582358 2.62224,7.34944 2.84497,12.851155 0.31056,7.67088 -0.82,13.333421 -3.84406,19.253402 -1.46397,2.865898 -2.05351,3.619546 -5.64663,7.21839 -6.19687,6.206746 -10.52811,8.493479 -20.54869,10.848919 C 107.81005,77.75887 99.249875,77.689325 95.2,76.65128 Z"
     id="path4520" />
  <path
     style="fill:#ff0000;fill-opacity:1;stroke-width:0.11337678"
     d="m 163.73176,78.573669 c 0.0819,-0.03275 0.17963,-0.02872 0.21731,0.009 0.0377,0.03767 -0.0293,0.06447 -0.14881,0.05955 -0.13208,-0.0054 -0.15894,-0.03231 -0.0685,-0.0685 z"
     id="path4530" />
  <path
     style="fill:#ff0000;fill-opacity:1;stroke-width:0.11337678"
     d=""
     id="path4532" />
</svg>
