<?xml version="1.0" encoding="UTF-8" standalone="no"?>
<svg
   xmlns:dc="http://purl.org/dc/elements/1.1/"
   xmlns:cc="http://creativecommons.org/ns#"
   xmlns:rdf="http://www.w3.org/1999/02/22-rdf-syntax-ns#"
   xmlns:svg="http://www.w3.org/2000/svg"
   xmlns="http://www.w3.org/2000/svg"
   xmlns:sodipodi="http://sodipodi.sourceforge.net/DTD/sodipodi-0.dtd"
   xmlns:inkscape="http://www.inkscape.org/namespaces/inkscape"
   version="1.1"
   id="svg2"
   width="207.40103"
   height="202.94807"
   viewBox="0 0 207.40103 202.94807"
   sodipodi:docname="mch-logo-outlined.svg"
   inkscape:version="0.92.4 (ca053d0, 2019-01-16)">
  <sodipodi:namedview
     pagecolor="#ffffff"
     bordercolor="#666666"
     borderopacity="1"
     objecttolerance="10"
     gridtolerance="10"
     guidetolerance="10"
     inkscape:pageopacity="0"
     inkscape:pageshadow="2"
     inkscape:window-width="1257"
     inkscape:window-height="755"
     id="namedview11"
     showgrid="false"
     inkscape:zoom="0.55125925"
     inkscape:cx="-82.301898"
     inkscape:cy="-94.323685"
     inkscape:window-x="0"
     inkscape:window-y="28"
     inkscape:window-maximized="0"
     inkscape:current-layer="svg2"
     fit-margin-top="0"
     fit-margin-left="0"
     fit-margin-right="0"
     fit-margin-bottom="0" />
  <metadata
     id="metadata8">
    <rdf:RDF>
      <cc:Work
         rdf:about="">
        <dc:format>image/svg+xml</dc:format>
        <dc:type
           rdf:resource="http://purl.org/dc/dcmitype/StillImage" />
        <dc:title></dc:title>
      </cc:Work>
    </rdf:RDF>
  </metadata>
  <defs
     id="defs6" />
  <path
     style="fill:#63defc;fill-opacity:1;stroke-width:0.31999999"
     d="m 0.56686388,143.60956 c -0.1173334,-0.11734 -0.2133334,-0.98825 -0.2133334,-1.93537 0,-2.27948 1.33539172,-4.3874 5.24210432,-8.27468 8.7655372,-8.72193 22.3889952,-16.98858 33.3692492,-20.24833 6.387075,-1.89615 8.043353,-2.12582 15.308646,-2.12276 5.890301,0.003 7.067738,0.0909 9.536432,0.71654 4.86263,1.23227 9.017738,3.44065 13.183568,7.00687 6.14272,5.25857 11.734218,8.37201 16.53192,9.20524 5.28663,0.91814 9.31118,-0.25396 22.34808,-6.50861 12.27981,-5.89143 17.46872,-7.38557 25.64884,-7.38557 8.6986,0 13.36249,1.81488 21.60536,8.40738 5.90068,4.71926 9.64391,6.88105 13.19146,7.61832 3.3346,0.69301 7.79771,-0.96801 13.94115,-5.18844 1.76725,-1.21407 4.72519,-3.255 6.57319,-4.5354 3.50425,-2.42795 5.86648,-3.42186 8.13275,-3.42186 1.74204,0 2.10725,0.41844 2.10725,2.41439 0,1.38493 -0.20902,1.96978 -1.31622,3.68283 -1.76504,2.73087 -4.69198,6.04434 -8.32531,9.42476 -5.25565,4.88982 -9.86925,7.72709 -14.82003,9.11401 -2.23267,0.62547 -3.08826,0.69453 -7.04,0.56823 -3.80092,-0.12148 -4.9202,-0.28147 -7.21844,-1.03182 -3.54127,-1.15618 -6.28713,-2.55684 -9.41282,-4.80143 -4.69112,-3.36877 -6.15221,-4.27908 -8.21399,-5.11764 -4.84483,-1.97045 -9.3826,-2.28791 -14.42394,-1.00907 -3.68622,0.93509 -6.59695,2.1331 -14.66925,6.03762 -7.24055,3.5022 -12.01574,5.42191 -16.30557,6.55511 -4.39546,1.1611 -12.03524,1.37747 -16.193438,0.45862 -7.131952,-1.57597 -11.503152,-4.10865 -22.266906,-12.90145 -7.441628,-6.07899 -14.69526,-8.16576 -22.176409,-6.37985 -5.925491,1.41453 -11.187981,3.93645 -23.057677,11.0498 -12.6101485,7.55709 -15.2993998,8.81589 -18.8339713,8.81589 -1.110649,0 -2.11536162,-0.096 -2.23269482,-0.21333 z"
     id="path4526"
     inkscape:connector-curvature="0" />
  <g
     style="fill:#8b694a;fill-opacity:1"
     id="g3720"
     transform="translate(-3.1664675,30.06289)">
    <path
       id="path4524"
       style="fill:#8b694a;fill-opacity:1;stroke-width:0.31999999"
       d="m 181.40153,82.10633 c -2.32848,-1.41984 -4.3821,-4.06797 -9.86506,-12.72095 -0.87315,-1.37796 -2.67315,-3.58681 -4,-4.90856 -5.86732,-5.84475 -12.27323,-6.897236 -22.09247,-3.629786 -3.78831,1.260598 -12.83379,5.879436 -18.08,9.232076 -8.52163,5.44583 -12.11766,6.82017 -18.60541,7.11066 -6.6496,0.29774 -11.442942,-0.76854 -17.874587,-3.97618 -3.156307,-1.57414 -4.962784,-2.68292 -9.330045,-5.72663 -0.731526,-0.50983 -3.251526,-2.45263 -5.6,-4.317347 C 63.569792,53.336461 57.756557,51.231152 51.731462,54.397248 47.710422,56.510246 44.801523,59.90824 39.675734,68.48 34.858307,76.53609 32.399225,79.2 29.779991,79.2 c -0.730393,0 -1.500788,-0.1728 -1.711988,-0.384 -0.242466,-0.24247 -0.383174,-1.4514 -0.381758,-3.28 0.0033,-4.2496 1.235272,-9.07348 4.514283,-17.675885 6.226041,-16.333846 8.977011,-20.524547 15.010777,-22.86671 2.225239,-0.863786 7.598298,-1.187101 9.831594,-0.591603 4.624813,1.233187 10.243974,5.052518 19.281104,13.105324 4.084442,3.639568 8.179421,7.035584 11.04,9.15561 1.408,1.043494 2.608,2.005264 2.666666,2.137264 0.05867,0.132 0.242198,0.24 0.407843,0.24 0.165648,0 1.211753,0.575082 2.324681,1.277958 4.93065,3.113988 10.624167,5.122042 14.522747,5.122042 3.78273,0 6.44857,-1.07382 12.71806,-5.122954 11.21172,-7.241043 23.07645,-13.594252 29.52715,-15.810902 5.07435,-1.743699 7.78015,-2.188288 12.48666,-2.051693 3.69176,0.107146 4.22826,0.200381 5.82619,1.01248 3.72313,1.89217 6.00134,4.857098 10.24496,13.333069 5.40796,10.80155 7.64941,16.94201 7.91614,21.68626 0.14346,2.5518 0.0866,3.05481 -0.40677,3.6 -0.75108,0.82994 -2.85218,0.83998 -4.1968,0.0201 z"
       inkscape:connector-curvature="0" />
  </g>
  <path
     style="fill:#f4cc22;fill-opacity:1;stroke-width:0.31999999"
     d="M 94.457368,70.714172 C 83.492542,67.903722 74.00132,60.562912 69.667013,51.540542 67.9794,48.027582 66.137368,42.17976 66.137368,40.33514 c 0,-1.09202 0.05563,-1.15225 1.064221,-1.15225 1.204182,0 1.813939,0.544806 3.511641,3.13759 2.14265,3.272332 7.777821,9.262922 10.806221,11.487792 3.303571,2.42703 7.625171,4.28291 14.754768,6.33634 1.98883,0.57281 6.572601,0.51991 9.223151,-0.10644 0.792,-0.18716 2.016,-0.47277 2.72,-0.6347 3.46936,-0.79798 9.12023,-3.74613 11.76977,-6.14047 3.20717,-2.89828 5.88995,-7.57548 6.97486,-12.160112 0.52241,-2.207594 0.52137,-7.81808 -0.002,-10.56 -0.94274,-4.939223 -4.29976,-10.00833 -9.32048,-14.073889 -3.74297,-3.030895 -11.0051,-5.271516 -14.55207,-4.489825 -2.04603,0.45091 -4.472241,1.353248 -6.80534,2.530992 -3.665737,1.850458 -7.432563,6.867376 -7.421696,9.884726 0.0087,2.42295 3.047306,6.226406 6.321047,7.912185 2.164548,1.114617 2.500608,0.855494 2.803628,-2.161831 0.42708,-4.252775 1.87388,-6.146444 5.966551,-7.809443 1.71494,-0.696843 2.38433,-0.795975 4.73159,-0.700723 2.25766,0.09162 3.0965,0.284214 4.81406,1.105313 3.42072,1.635308 5.21304,3.296114 6.61645,6.130969 l 1.22363,2.471526 v 4.16 4.16 l -1.18075,1.92 c -1.31914,2.145024 -4.28116,5.148842 -6.08342,6.169272 -1.62909,0.92237 -5.75073,2.23123 -8.25583,2.62169 -5.17182,0.80612 -13.237599,0.16104 -16.72685,-1.33776 -3.761923,-1.61593 -7.761763,-4.918156 -10.083379,-8.324735 -1.26833,-1.861059 -3.459677,-7.600253 -3.925811,-10.281795 -0.588922,-3.387891 -0.239492,-11.036743 0.623433,-13.646672 1.780103,-5.383943 4.035898,-8.3399783 9.323696,-12.2179353 1.449546,-1.063063 6.538781,-3.213749 9.428909,-3.98460804 1.877629,-0.500804 3.378881,-0.594432 9.280002,-0.578757 6.74893,0.01793 7.15907,0.0552 9.92,0.901571 5.21066,1.59734104 9.00156,3.23797304 11.84,5.12413504 5.39573,3.585499 10.67458,9.5819573 12.89771,14.6510373 2.00966,4.582358 2.62224,7.34944 2.84497,12.851155 0.31056,7.67088 -0.82,13.333424 -3.84406,19.253404 -1.46397,2.8659 -2.05351,3.61955 -5.64663,7.21839 -6.19687,6.20675 -10.52811,8.49348 -20.54869,10.84892 -4.13325,0.97156 -12.693431,0.90201 -16.743302,-0.13603 z"
     id="path4520"
     inkscape:connector-curvature="0" />
  <path
     style="fill:#ff0000;fill-opacity:1;stroke-width:0.11337678"
     d="m 160.56529,124.63656 c 0.0819,-0.0328 0.17963,-0.0287 0.21731,0.009 0.0377,0.0377 -0.0293,0.0645 -0.14881,0.0596 -0.13208,-0.005 -0.15894,-0.0323 -0.0685,-0.0685 z"
     id="path4530"
     inkscape:connector-curvature="0" />
  <path
     style="fill:#ff0000;fill-opacity:1;stroke-width:0.11337678"
     d=""
     id="path4532"
     inkscape:connector-curvature="0" />
  <text
     xml:space="preserve"
     style="font-style:normal;font-variant:normal;font-weight:bold;font-stretch:normal;font-size:24px;line-height:1.25;font-family:serif;-inkscape-font-specification:'serif Bold';font-variant-ligatures:normal;font-variant-caps:normal;font-variant-numeric:normal;font-feature-settings:normal;text-align:start;letter-spacing:-1.95000005px;word-spacing:0px;writing-mode:lr-tb;text-anchor:start;fill:#8b694a;fill-opacity:1;stroke:none"
     x="103.94791"
     y="169.23714"
     id="text819"><tspan
       sodipodi:role="line"
       id="tspan821"
       x="106.63333"
       y="169.23714"
       style="font-style:normal;font-variant:normal;font-weight:bold;font-stretch:normal;font-size:26.66666603px;font-family:serif;-inkscape-font-specification:'serif Bold';text-align:center;text-anchor:middle;fill:#8b694a;fill-opacity:1">MANFRED </tspan><tspan
       sodipodi:role="line"
       x="102.97292"
       y="202.57047"
       id="tspan4528"
       style="font-style:normal;font-variant:normal;font-weight:bold;font-stretch:normal;font-size:26.66666603px;font-family:serif;-inkscape-font-specification:'serif Bold';text-align:center;text-anchor:middle;fill:#8b694a;fill-opacity:1">COSTA HOMES</tspan></text>
</svg>
