<?xml version="1.0" encoding="UTF-8" standalone="no"?>
<svg
   xmlns:dc="http://purl.org/dc/elements/1.1/"
   xmlns:cc="http://creativecommons.org/ns#"
   xmlns:rdf="http://www.w3.org/1999/02/22-rdf-syntax-ns#"
   xmlns:svg="http://www.w3.org/2000/svg"
   xmlns="http://www.w3.org/2000/svg"
   viewBox="0 0 282.90619 49.354007"
   height="49.354008"
   width="282.90619"
   id="svg2"
   version="1.1">
  <metadata
     id="metadata8">
    <rdf:RDF>
      <cc:Work
         rdf:about="">
        <dc:format>image/svg+xml</dc:format>
        <dc:type
           rdf:resource="http://purl.org/dc/dcmitype/StillImage" />
        <dc:title></dc:title>
      </cc:Work>
    </rdf:RDF>
  </metadata>
  <defs
     id="defs6" />
  <path
     id="path4526"
     d="M 0.069546,46.930287 C 0.031296,46.891941 0,46.607333 0,46.297826 c 0,-0.744915 0.435332,-1.433765 1.708905,-2.704092 2.85753,-2.850245 7.298724,-5.551711 10.878243,-6.616966 2.082161,-0.619648 2.622101,-0.694701 4.990558,-0.693702 1.920215,0.0012 2.304054,0.02973 3.108839,0.23416 1.585198,0.402696 2.939747,1.124375 4.297791,2.289781 2.002502,1.718455 3.825309,2.735899 5.38934,3.008188 1.723421,0.300042 3.035408,-0.08299 7.285386,-2.126956 4.003169,-1.925261 5.694733,-2.413532 8.36142,-2.413532 2.835709,0 4.356118,0.593087 7.043262,2.747456 1.923598,1.542205 3.143876,2.248662 4.300363,2.489595 1.087066,0.22647 2.542023,-0.316339 4.544757,-1.695536 0.57612,-0.396745 1.540396,-1.063704 2.142836,-1.482128 1.14237,-0.79343 1.91245,-1.11823 2.65125,-1.11823 0.56789,0 0.68695,0.136741 0.68695,0.789001 0,0.452581 -0.0681,0.643706 -0.42908,1.203512 -0.5754,0.892424 -1.52957,1.975233 -2.714023,3.079927 -1.71332,1.597947 -3.217332,2.52514 -4.831271,2.978373 -0.727839,0.204397 -1.006758,0.226968 -2.29501,0.185691 -1.239085,-0.03972 -1.603965,-0.09198 -2.353182,-0.337184 -1.15444,-0.377833 -2.04958,-0.835554 -3.068542,-1.569066 -1.529287,-1.100881 -2.005596,-1.398361 -2.677729,-1.672401 -1.579395,-0.643923 -3.05869,-0.747664 -4.702147,-0.329752 -1.201693,0.305577 -2.150579,0.697081 -4.782117,1.973037 -2.360391,1.144491 -3.917083,1.771835 -5.315551,2.142154 -1.432903,0.379437 -3.923441,0.450143 -5.278998,0.149871 C 26.617263,46.294013 25.192269,45.466355 21.683328,42.592951 19.257387,40.60639 16.892731,39.924455 14.453906,40.508072 12.52222,40.970329 10.806669,41.794468 6.937195,44.119047 2.826337,46.588638 1.949652,47 0.797395,47 0.435328,47 0.107796,46.96863 0.069546,46.93029 Z"
     style="fill:#63defc;fill-opacity:1;stroke-width:0.10444582" />
  <g
     transform="matrix(0.32599604,0,0,0.3267908,-1.147505,9.8242794)"
     id="g3720"
     style="fill:#8b694a;fill-opacity:1">
    <path
       d="m 181.40153,82.10633 c -2.32848,-1.41984 -4.3821,-4.06797 -9.86506,-12.72095 -0.87315,-1.37796 -2.67315,-3.58681 -4,-4.90856 -5.86732,-5.84475 -12.27323,-6.897236 -22.09247,-3.629786 -3.78831,1.260598 -12.83379,5.879436 -18.08,9.232076 -8.52163,5.44583 -12.11766,6.82017 -18.60541,7.11066 -6.6496,0.29774 -11.442942,-0.76854 -17.874587,-3.97618 -3.156307,-1.57414 -4.962784,-2.68292 -9.330045,-5.72663 -0.731526,-0.50983 -3.251526,-2.45263 -5.6,-4.317347 C 63.569792,53.336461 57.756557,51.231152 51.731462,54.397248 47.710422,56.510246 44.801523,59.90824 39.675734,68.48 34.858307,76.53609 32.399225,79.2 29.779991,79.2 c -0.730393,0 -1.500788,-0.1728 -1.711988,-0.384 -0.242466,-0.24247 -0.383174,-1.4514 -0.381758,-3.28 0.0033,-4.2496 1.235272,-9.07348 4.514283,-17.675885 6.226041,-16.333846 8.977011,-20.524547 15.010777,-22.86671 2.225239,-0.863786 7.598298,-1.187101 9.831594,-0.591603 4.624813,1.233187 10.243974,5.052518 19.281104,13.105324 4.084442,3.639568 8.179421,7.035584 11.04,9.15561 1.408,1.043494 2.608,2.005264 2.666666,2.137264 0.05867,0.132 0.242198,0.24 0.407843,0.24 0.165648,0 1.211753,0.575082 2.324681,1.277958 4.93065,3.113988 10.624167,5.122042 14.522747,5.122042 3.78273,0 6.44857,-1.07382 12.71806,-5.122954 11.21172,-7.241043 23.07645,-13.594252 29.52715,-15.810902 5.07435,-1.743699 7.78015,-2.188288 12.48666,-2.051693 3.69176,0.107146 4.22826,0.200381 5.82619,1.01248 3.72313,1.89217 6.00134,4.857098 10.24496,13.333069 5.40796,10.80155 7.64941,16.94201 7.91614,21.68626 0.14346,2.5518 0.0866,3.05481 -0.40677,3.6 -0.75108,0.82994 -2.85218,0.83998 -4.1968,0.0201 z"
       style="fill:#8b694a;fill-opacity:1;stroke-width:0.31999999"
       id="path4524" />
  </g>
  <path
     id="path4520"
     d="m 30.677478,23.108743 c -3.57449,-0.918427 -6.668591,-3.317338 -8.081558,-6.265765 -0.550155,-1.148002 -1.15065,-3.059017 -1.15065,-3.661822 0,-0.356862 0.01814,-0.376545 0.346932,-0.376545 0.392558,0 0.591337,0.178037 1.144781,1.025336 0.698495,1.069368 2.535539,3.027038 3.522785,3.754105 1.07695,0.793131 2.485775,1.399615 4.809996,2.070657 0.648351,0.187189 2.142642,0.169902 3.006711,-0.03479 0.258189,-0.06116 0.657208,-0.154498 0.886709,-0.207414 1.130997,-0.260773 2.973159,-1.224201 3.836898,-2.006649 1.045525,-0.947131 1.920101,-2.475597 2.273777,-3.973813 0.170304,-0.721421 0.169965,-2.554876 -6.46e-4,-3.4509106 -0.30733,-1.614089 -1.401705,-3.270626 -3.03844,-4.599213 -1.220193,-0.990469 -3.587618,-1.722683 -4.743917,-1.467234 -0.666997,0.147354 -1.457933,0.44223 -2.218514,0.827105 -1.195016,0.604713 -2.422985,2.244196 -2.419444,3.230237 0.0029,0.791798 0.99341,2.0347326 2.060636,2.5856296 0.705636,0.364246 0.81519,0.279567 0.913973,-0.7064656 0.139226,-1.389769 0.610877,-2.008602 1.945072,-2.552055 0.559063,-0.227721 0.777282,-0.260116 1.54248,-0.22899 0.735988,0.02994 1.009446,0.09288 1.569364,0.361207 1.115141,0.534404 1.69943,1.077139 2.156937,2.003544 l 0.398898,0.8076716 v 1.35945 1.359449 l -0.38492,0.627439 c -0.430034,0.700974 -1.395641,1.682594 -1.983171,2.016061 -0.531076,0.301422 -1.874715,0.729146 -2.691367,0.856744 -1.685993,0.263433 -4.315406,0.05263 -5.452887,-0.437167 -1.226371,-0.528072 -2.530305,-1.607209 -3.287142,-2.720447 -0.41347,-0.608177 -1.127841,-2.483693 -1.279799,-3.3599966 -0.191986,-1.107131 -0.07807,-3.606705 0.203237,-4.459606 0.580306,-1.759423 1.315687,-2.725429 3.039488,-3.99271 0.472547,-0.347399 2.131616,-1.05022302 3.073787,-1.30213302 0.6121,-0.163658 1.101501,-0.1942549 3.025244,-0.18913299745 2.200124,0.005899997 2.333828,0.0180399975 3.233881,0.29462599745 1.698654,0.521996 2.934472,1.05814002 3.859792,1.67452002 1.758987,1.171708 3.479871,3.131296 4.204603,4.787825 0.655141,1.497472 0.85484,2.401729 0.927449,4.1996386 0.101241,2.506773 -0.267317,4.357241 -1.253149,6.291836 -0.477248,0.936549 -0.669436,1.182835 -1.840779,2.358902 -2.020154,2.028313 -3.432122,2.775595 -6.698791,3.545332 -1.347423,0.317496 -4.138008,0.294766 -5.45825,-0.04447 z"
     style="fill:#f4cc22;fill-opacity:1;stroke-width:0.10444582" />
  <path
     id="path4530"
     d="m 45.021212,49.31549 c 0.04545,-0.0182 0.09967,-0.016 0.120582,0.005 0.02092,0.021 -0.01626,0.0359 -0.08257,0.0332 -0.07329,-0.003 -0.08819,-0.018 -0.03801,-0.0381 z"
     style="fill:#ff0000;fill-opacity:1;stroke-width:0.06298792" />
  <path
     id="path4532"
     d=""
     style="fill:#ff0000;fill-opacity:1;stroke-width:0.11337678" />
  <text
     transform="scale(0.99878328,1.0012182)"
     id="text4525"
     y="26.258371"
     x="68.731133"
     style="font-style:normal;font-weight:normal;font-size:35.55602264px;line-height:1.25;font-family:sans-serif;letter-spacing:0px;word-spacing:0px;fill:#f4cc22;fill-opacity:1;stroke:none;stroke-width:0.55556285"
     xml:space="preserve"><tspan
       style="font-style:normal;font-variant:normal;font-weight:normal;font-stretch:normal;font-size:29.63001823px;font-family:sans-serif;-inkscape-font-specification:sans-serif;letter-spacing:-1.88335776px;fill:#f4cc22;fill-opacity:1;stroke-width:0.55556285"
       y="26.258371"
       x="68.731133"
       id="tspan4523">COSTA HOMES</tspan></text>
  <text
     transform="scale(0.99878328,1.0012182)"
     id="text4529"
     y="43.778767"
     x="72.73716"
     style="font-style:normal;font-weight:normal;font-size:14.9333334px;line-height:1.25;font-family:sans-serif;letter-spacing:0.41667214px;word-spacing:0px;fill:#8b694a;fill-opacity:1;stroke:none;stroke-width:0.55556285"
     xml:space="preserve"><tspan
       dx="0"
       style="font-size:14.9333334px;letter-spacing:0.41667214px;fill:#8b694a;fill-opacity:1;stroke-width:0.55556285"
       y="43.778767"
       x="72.73716"
       id="tspan4527">by Manfred and Associates</tspan></text>
</svg>
