<?xml version="1.0" encoding="UTF-8" standalone="no"?>
<svg
   xmlns:dc="http://purl.org/dc/elements/1.1/"
   xmlns:cc="http://creativecommons.org/ns#"
   xmlns:rdf="http://www.w3.org/1999/02/22-rdf-syntax-ns#"
   xmlns:svg="http://www.w3.org/2000/svg"
   xmlns="http://www.w3.org/2000/svg"
   viewBox="0 0 231.31654 40.354019"
   height="40.354019"
   width="231.31654"
   id="svg2"
   version="1.1">
  <metadata
     id="metadata8">
    <rdf:RDF>
      <cc:Work
         rdf:about="">
        <dc:format>image/svg+xml</dc:format>
        <dc:type
           rdf:resource="http://purl.org/dc/dcmitype/StillImage" />
        <dc:title></dc:title>
      </cc:Work>
    </rdf:RDF>
  </metadata>
  <defs
     id="defs6" />
  <path
     id="path4526"
     d="M 0.05686387,38.372267 C 0.02558899,38.340913 0,38.108205 0,37.855139 c 0,-0.609075 0.35594659,-1.17231 1.3972759,-2.210985 2.3364422,-2.330485 5.9677577,-4.539323 8.8945301,-5.410322 1.702466,-0.506652 2.143945,-0.568018 4.0805,-0.567201 1.570052,9.81e-4 1.883895,0.02431 2.541923,0.191459 1.296128,0.329262 2.403666,0.919339 3.514063,1.872226 1.637334,1.405084 3.127741,2.236991 4.406561,2.459627 1.409145,0.245327 2.481883,-0.06786 5.956852,-1.739093 3.273167,-1.574178 4.656265,-1.97341 6.836665,-1.97341 2.318601,0 3.561754,0.484934 5.758881,2.246441 1.572818,1.260974 2.570571,1.838605 3.516166,2.035602 0.888833,0.185172 2.07847,-0.258653 3.715993,-1.386345 0.471061,-0.324396 1.259496,-0.869731 1.752077,-1.211853 0.934052,-0.648743 1.563703,-0.914314 2.167779,-0.914314 0.464332,0 0.56168,0.111806 0.56168,0.645122 0,0.37005 -0.05568,0.526322 -0.350834,0.984044 -0.470473,0.729686 -1.250644,1.615038 -2.219105,2.518284 -1.400886,1.306552 -2.630632,2.064666 -3.95026,2.435249 -0.595113,0.167124 -0.823169,0.185579 -1.876501,0.151829 -1.01313,-0.03248 -1.311472,-0.07521 -1.924065,-0.275696 -0.943921,-0.308933 -1.675827,-0.683186 -2.508975,-1.282938 -1.250412,-0.900128 -1.639863,-1.143361 -2.189429,-1.367428 -1.291383,-0.5265 -2.500919,-0.611323 -3.844682,-0.26962 -0.982557,0.249853 -1.758408,0.569964 -3.910069,1.613242 -1.92996,0.935786 -3.20278,1.44873 -4.346229,1.751519 -1.171604,0.310245 -3.207977,0.368057 -4.31634,0.122541 -1.901012,-0.421098 -3.06615,-1.097827 -5.935214,-3.447249 -1.983556,-1.6243 -3.917003,-2.18188 -5.911094,-1.704689 -1.579431,0.377962 -2.9821411,1.051814 -6.1459933,2.952492 -3.3612183,2.019247 -4.0780345,2.355594 -5.02017048,2.355594 -0.2960419,0 -0.56384647,-0.02565 -0.59512135,-0.057 z"
     style="fill:#63defc;fill-opacity:1;stroke-width:0.0853995" />
  <g
     transform="matrix(0.2665487,0,0,0.26719853,-0.93825056,8.0327629)"
     id="g3720"
     style="fill:#8b694a;fill-opacity:1">
    <path
       d="m 181.40153,82.10633 c -2.32848,-1.41984 -4.3821,-4.06797 -9.86506,-12.72095 -0.87315,-1.37796 -2.67315,-3.58681 -4,-4.90856 -5.86732,-5.84475 -12.27323,-6.897236 -22.09247,-3.629786 -3.78831,1.260598 -12.83379,5.879436 -18.08,9.232076 -8.52163,5.44583 -12.11766,6.82017 -18.60541,7.11066 -6.6496,0.29774 -11.442942,-0.76854 -17.874587,-3.97618 -3.156307,-1.57414 -4.962784,-2.68292 -9.330045,-5.72663 -0.731526,-0.50983 -3.251526,-2.45263 -5.6,-4.317347 C 63.569792,53.336461 57.756557,51.231152 51.731462,54.397248 47.710422,56.510246 44.801523,59.90824 39.675734,68.48 34.858307,76.53609 32.399225,79.2 29.779991,79.2 c -0.730393,0 -1.500788,-0.1728 -1.711988,-0.384 -0.242466,-0.24247 -0.383174,-1.4514 -0.381758,-3.28 0.0033,-4.2496 1.235272,-9.07348 4.514283,-17.675885 6.226041,-16.333846 8.977011,-20.524547 15.010777,-22.86671 2.225239,-0.863786 7.598298,-1.187101 9.831594,-0.591603 4.624813,1.233187 10.243974,5.052518 19.281104,13.105324 4.084442,3.639568 8.179421,7.035584 11.04,9.15561 1.408,1.043494 2.608,2.005264 2.666666,2.137264 0.05867,0.132 0.242198,0.24 0.407843,0.24 0.165648,0 1.211753,0.575082 2.324681,1.277958 4.93065,3.113988 10.624167,5.122042 14.522747,5.122042 3.78273,0 6.44857,-1.07382 12.71806,-5.122954 11.21172,-7.241043 23.07645,-13.594252 29.52715,-15.810902 5.07435,-1.743699 7.78015,-2.188288 12.48666,-2.051693 3.69176,0.107146 4.22826,0.200381 5.82619,1.01248 3.72313,1.89217 6.00134,4.857098 10.24496,13.333069 5.40796,10.80155 7.64941,16.94201 7.91614,21.68626 0.14346,2.5518 0.0866,3.05481 -0.40677,3.6 -0.75108,0.82994 -2.85218,0.83998 -4.1968,0.0201 z"
       style="fill:#8b694a;fill-opacity:1;stroke-width:0.31999999"
       id="path4524" />
  </g>
  <path
     id="path4520"
     d="m 25.083255,18.894725 c -2.92266,-0.750947 -5.452533,-2.712402 -6.607837,-5.123165 -0.449831,-0.938657 -0.940822,-2.501187 -0.940822,-2.994067 0,-0.291786 0.01483,-0.30788 0.283667,-0.30788 0.320973,0 0.483503,0.145571 0.936023,0.83836 0.57112,0.874362 2.073168,2.475039 2.880384,3.069521 0.880562,0.648499 2.032479,1.144387 3.932864,1.693061 0.530121,0.153053 1.751919,0.138919 2.45842,-0.02845 0.211106,-0.05001 0.537362,-0.126325 0.725012,-0.169591 0.924753,-0.21322 2.430985,-1.000961 3.137216,-1.640725 0.854868,-0.774416 1.569959,-2.024157 1.85914,-3.249164 C 33.88657,10.392764 33.886293,8.8936501 33.746794,8.1610128 33.495508,6.8412627 32.600699,5.4868052 31.262432,4.400494 30.264749,3.590643 28.329038,2.9919526 27.383597,3.200819 c -0.545366,0.1204831 -1.19207,0.3615867 -1.813955,0.6762774 -0.977097,0.4944399 -1.981139,1.8349533 -1.978244,2.6411838 0.0024,0.6474089 0.812256,1.6636869 1.684867,2.1141245 0.576959,0.2978236 0.666535,0.2285863 0.747305,-0.5776373 0.113837,-1.1363363 0.499479,-1.6423214 1.590376,-2.0866724 0.457114,-0.1861948 0.63554,-0.2126823 1.261199,-0.1872323 0.601777,0.02448 0.825368,0.075943 1.283182,0.2953387 0.911788,0.4369522 1.389528,0.8807162 1.763606,1.6381857 l 0.326157,0.6603878 v 1.1115461 1.111545 l -0.314728,0.513022 c -0.351615,0.573147 -1.141137,1.375763 -1.621528,1.64842 -0.434231,0.246456 -1.532849,0.596182 -2.20058,0.700512 -1.378542,0.215394 -3.528466,0.04303 -4.45852,-0.357447 C 22.649999,12.670598 21.583845,11.788248 20.965022,10.878016 20.626951,10.380743 20.04285,8.847239 19.918602,8.1307347 19.761626,7.2254957 19.854769,5.181734 20.084778,4.4843647 20.559261,3.045783 21.160541,2.255934 22.569997,1.2197494 22.956372,0.93570065 24.3129,0.36104082 25.08326,0.15506813 c 0.50048,-0.13381398 0.900636,-0.15883135 2.473573,-0.15464346012 1.798918,0.0048241 1.90824,0.0147503001 2.644163,0.24089917012 1.388894,0.42680689 2.399353,0.86518186 3.155936,1.36916126 1.438225,0.95804 2.845295,2.5602853 3.437868,3.9147363 0.535672,1.2243989 0.698955,1.9637592 0.758323,3.4338092 0.08278,2.0496474 -0.21857,3.5626714 -1.02463,5.1444814 -0.390218,0.765764 -0.54736,0.967138 -1.505101,1.928742 -1.651767,1.658438 -2.806254,2.269449 -5.477227,2.89882 -1.101712,0.259599 -3.383417,0.241013 -4.462905,-0.03636 z"
     style="fill:#f4cc22;fill-opacity:1;stroke-width:0.0853995" />
  <path
     id="path4530"
     d="m 36.811323,40.322514 c 0.03716,-0.01488 0.08149,-0.01308 0.09859,0.0041 0.01711,0.01717 -0.01329,0.02935 -0.06751,0.02715 -0.05992,-0.0025 -0.07211,-0.01472 -0.03108,-0.03115 z"
     style="fill:#ff0000;fill-opacity:1;stroke-width:0.0515017" />
  <path
     id="path4532"
     d=""
     style="fill:#ff0000;fill-opacity:1;stroke-width:0.11337678" />
  <text
     transform="scale(0.99878328,1.0012182)"
     id="text4525"
     y="21.469999"
     x="56.197598"
     style="font-style:normal;font-weight:normal;font-size:29.07216835px;line-height:1.25;font-family:sans-serif;letter-spacing:0px;word-spacing:0px;fill:#f4cc22;fill-opacity:1;stroke:none;stroke-width:0.45425263"
     xml:space="preserve"><tspan
       style="font-style:normal;font-variant:normal;font-weight:normal;font-stretch:normal;font-size:24.22680664px;font-family:sans-serif;-inkscape-font-specification:sans-serif;letter-spacing:-1.53991616px;fill:#f4cc22;fill-opacity:1;stroke-width:0.45425263"
       y="21.469999"
       x="56.197598"
       id="tspan4523">COSTA HOMES</tspan></text>
  <text
     transform="scale(0.99878328,1.0012182)"
     id="text4529"
     y="35.795444"
     x="59.473103"
     style="font-style:normal;font-weight:normal;font-size:12.21014977px;line-height:1.25;font-family:sans-serif;letter-spacing:0.34068948px;word-spacing:0px;fill:#8b694a;fill-opacity:1;stroke:none;stroke-width:0.45425263"
     xml:space="preserve"><tspan
       dx="0"
       style="font-size:12.21014977px;letter-spacing:0.34068948px;fill:#8b694a;fill-opacity:1;stroke-width:0.45425263"
       y="35.795444"
       x="59.473103"
       id="tspan4527">by Manfred and Associates</tspan></text>
</svg>
