<?xml version="1.0" encoding="UTF-8" standalone="no"?>
<svg
   xmlns:dc="http://purl.org/dc/elements/1.1/"
   xmlns:cc="http://creativecommons.org/ns#"
   xmlns:rdf="http://www.w3.org/1999/02/22-rdf-syntax-ns#"
   xmlns:svg="http://www.w3.org/2000/svg"
   xmlns="http://www.w3.org/2000/svg"
   xmlns:sodipodi="http://sodipodi.sourceforge.net/DTD/sodipodi-0.dtd"
   xmlns:inkscape="http://www.inkscape.org/namespaces/inkscape"
   version="1.1"
   id="svg2"
   width="326.21353"
   height="80"
   viewBox="0 0 326.21353 79.999999"
   sodipodi:docname="mch-logo-wide-sml.svg"
   inkscape:version="0.92.4 (33fec40, 2019-01-16)">
  <sodipodi:namedview
     pagecolor="#ffffff"
     bordercolor="#666666"
     borderopacity="1"
     objecttolerance="10"
     gridtolerance="10"
     guidetolerance="10"
     inkscape:pageopacity="0"
     inkscape:pageshadow="2"
     inkscape:window-width="1680"
     inkscape:window-height="999"
     id="namedview11"
     showgrid="false"
     inkscape:zoom="1"
     inkscape:cx="48.48722"
     inkscape:cy="67.078647"
     inkscape:window-x="0"
     inkscape:window-y="27"
     inkscape:window-maximized="1"
     inkscape:current-layer="svg2"
     fit-margin-top="0"
     fit-margin-left="0"
     fit-margin-right="0"
     fit-margin-bottom="0" />
  <metadata
     id="metadata8">
    <rdf:RDF>
      <cc:Work
         rdf:about="">
        <dc:format>image/svg+xml</dc:format>
        <dc:type
           rdf:resource="http://purl.org/dc/dcmitype/StillImage" />
        <dc:title></dc:title>
      </cc:Work>
    </rdf:RDF>
  </metadata>
  <defs
     id="defs6" />
  <path
     style="fill:#63defc;fill-opacity:1;stroke-width:0.17778011"
     d="M 0.11837568,79.88134 C 0.05326914,79.81607 0,79.33163 0,78.80481 0,77.53687 0.74099093,76.36436 2.9087747,74.2021 7.772656,69.35062 15.332134,64.75238 21.424933,62.93918 c 3.544104,-1.05472 4.463151,-1.18247 8.494566,-1.18077 3.268451,0.002 3.921795,0.0506 5.291641,0.39857 2.69821,0.68544 5.003825,1.91383 7.315389,3.8975 3.408515,2.92503 6.511164,4.65685 9.173345,5.12032 2.933482,0.51071 5.166652,-0.14126 12.400657,-3.62035 6.813905,-3.27704 9.693163,-4.10814 14.232204,-4.10814 4.826739,0 7.41467,1.00951 11.988531,4.67652 3.27421,2.62503 5.351279,3.82751 7.319768,4.23761 1.850325,0.38548 4.326846,-0.53845 7.735756,-2.88602 0.98063,-0.67531 2.62195,-1.81056 3.64738,-2.52277 1.94446,-1.35052 3.25523,-1.90337 4.51276,-1.90337 0.96663,0 1.16928,0.23275 1.16928,1.34298 0,0.77035 -0.11598,1.09567 -0.73035,2.04853 -0.9794,1.51902 -2.60352,3.3621 -4.61961,5.24243 -2.91629,2.71991 -5.47631,4.29811 -8.22344,5.06957 -1.238875,0.34791 -1.71363,0.38633 -3.906399,0.31607 -2.109081,-0.0676 -2.730154,-0.15656 -4.005417,-0.57393 -1.965005,-0.64312 -3.488646,-1.42222 -5.223051,-2.67075 -2.603041,-1.87384 -3.41378,-2.38019 -4.557835,-2.84664 -2.688332,-1.09604 -5.206281,-1.27262 -8.003655,-0.56128 -2.045435,0.52013 -3.660561,1.18652 -8.139774,3.35836 -4.017686,1.94807 -6.667376,3.01589 -9.047747,3.64622 -2.438983,0.64585 -6.678197,0.7662 -8.985527,0.2551 -3.957426,-0.87662 -6.382947,-2.2854 -12.355613,-7.1763 C 32.778531,69.11726 28.753585,67.95652 24.602394,68.94991 21.314417,69.73673 18.39433,71.13952 11.807992,75.09625 4.8107859,79.29981 3.3185558,80 1.3572688,80 0.74098427,80 0.18348222,79.9466 0.11837568,79.88134 Z"
     id="path4526"
     inkscape:connector-curvature="0" />
  <g
     style="fill:#8b694a;fill-opacity:1"
     id="g3720"
     transform="matrix(0.55488687,0,0,0.55623966,-1.9532007,16.722177)">
    <path
       id="path4524"
       style="fill:#8b694a;fill-opacity:1;stroke-width:0.31999999"
       d="m 181.40153,82.10633 c -2.32848,-1.41984 -4.3821,-4.06797 -9.86506,-12.72095 -0.87315,-1.37796 -2.67315,-3.58681 -4,-4.90856 -5.86732,-5.84475 -12.27323,-6.897236 -22.09247,-3.629786 -3.78831,1.260598 -12.83379,5.879436 -18.08,9.232076 -8.52163,5.44583 -12.11766,6.82017 -18.60541,7.11066 -6.6496,0.29774 -11.442942,-0.76854 -17.874587,-3.97618 -3.156307,-1.57414 -4.962784,-2.68292 -9.330045,-5.72663 -0.731526,-0.50983 -3.251526,-2.45263 -5.6,-4.317347 C 63.569792,53.336461 57.756557,51.231152 51.731462,54.397248 47.710422,56.510246 44.801523,59.90824 39.675734,68.48 34.858307,76.53609 32.399225,79.2 29.779991,79.2 c -0.730393,0 -1.500788,-0.1728 -1.711988,-0.384 -0.242466,-0.24247 -0.383174,-1.4514 -0.381758,-3.28 0.0033,-4.2496 1.235272,-9.07348 4.514283,-17.675885 6.226041,-16.333846 8.977011,-20.524547 15.010777,-22.86671 2.225239,-0.863786 7.598298,-1.187101 9.831594,-0.591603 4.624813,1.233187 10.243974,5.052518 19.281104,13.105324 4.084442,3.639568 8.179421,7.035584 11.04,9.15561 1.408,1.043494 2.608,2.005264 2.666666,2.137264 0.05867,0.132 0.242198,0.24 0.407843,0.24 0.165648,0 1.211753,0.575082 2.324681,1.277958 4.93065,3.113988 10.624167,5.122042 14.522747,5.122042 3.78273,0 6.44857,-1.07382 12.71806,-5.122954 11.21172,-7.241043 23.07645,-13.594252 29.52715,-15.810902 5.07435,-1.743699 7.78015,-2.188288 12.48666,-2.051693 3.69176,0.107146 4.22826,0.200381 5.82619,1.01248 3.72313,1.89217 6.00134,4.857098 10.24496,13.333069 5.40796,10.80155 7.64941,16.94201 7.91614,21.68626 0.14346,2.5518 0.0866,3.05481 -0.40677,3.6 -0.75108,0.82994 -2.85218,0.83998 -4.1968,0.0201 z"
       inkscape:connector-curvature="0" />
  </g>
  <path
     style="fill:#f4cc22;fill-opacity:1;stroke-width:0.17778011"
     d="M 52.216984,39.33403 C 46.132745,37.77075 40.866191,33.687498 38.461141,28.668899 37.524707,26.714852 36.502587,23.462061 36.502587,22.43601 c 0,-0.607425 0.03087,-0.640927 0.590522,-0.640927 0.668185,0 1.006531,0.303042 1.948564,1.745252 1.188928,1.820201 4.315811,5.152405 5.99623,6.389966 1.833107,1.35001 4.231106,2.382324 8.187228,3.524522 1.103575,0.31862 3.647049,0.289195 5.117805,-0.05921 0.43947,-0.104106 1.118652,-0.262974 1.509292,-0.353045 1.925102,-0.443869 5.060696,-2.083746 6.530891,-3.415572 1.779616,-1.612138 3.268256,-4.213783 3.870258,-6.763937 0.289879,-1.227951 0.289302,-4.348726 -0.0011,-5.873891 -0.523114,-2.747392 -2.38588,-5.56703 -5.171812,-7.8284548 -2.076924,-1.685904 -6.106585,-2.932226 -8.074752,-2.497419 -1.135315,0.250814 -2.481588,0.752731 -3.776194,1.407838 -2.034071,1.029299 -4.12423,3.8199078 -4.118204,5.4982758 0.005,1.347741 1.690912,3.463375 3.507467,4.401072 1.201081,0.619994 1.387556,0.475859 1.555698,-1.202496 0.236981,-2.365563 1.039791,-3.418896 3.310761,-4.343922 0.951597,-0.387611 1.323033,-0.442752 2.625497,-0.38977 1.252746,0.05096 1.718207,0.158092 2.671258,0.614819 1.898113,0.909624 2.892648,1.833429 3.671382,3.410288 l 0.678976,1.374761 v 2.313957 2.313957 l -0.655183,1.06798 c -0.731973,1.193148 -2.375559,2.86399 -3.37561,3.431594 -0.90396,0.513059 -3.191004,1.241099 -4.581051,1.458288 -2.869775,0.448396 -7.345371,0.08958 -9.28151,-0.744115 -2.08744,-0.898845 -4.306901,-2.735674 -5.595135,-4.630548 -0.703779,-1.035195 -1.919729,-4.227563 -2.178381,-5.719143 -0.326785,-1.884479 -0.132891,-6.139073 0.345935,-7.5908188 0.987756,-2.994763 2.239467,-4.639028 5.173597,-6.796102 0.804336,-0.591318 3.628283,-1.78761499 5.231978,-2.21639699 1.041873,-0.278567 1.874896,-0.330647 5.149351,-0.32192799485 3.744893,0.009999995 3.972474,0.0306999949 5.504478,0.50148999485 2.891327,0.88850399 4.994847,1.80108899 6.56986,2.85024699 2.99402,1.994397 5.923184,5.329866 7.15677,8.1494898 1.115134,2.548888 1.455047,4.088049 1.578637,7.148321 0.172325,4.266848 -0.455008,7.41658 -2.133019,10.709508 -0.812338,1.594126 -1.139466,2.013337 -3.133241,4.015153 -3.438561,3.452447 -5.84191,4.724417 -11.402198,6.034607 -2.293486,0.54042 -7.043418,0.50173 -9.290638,-0.0757 z"
     id="path4520"
     inkscape:connector-curvature="0" />
  <path
     style="fill:#ff0000;fill-opacity:1;stroke-width:0.06298792"
     d="m 80.021212,59.31549 c 0.04545,-0.0182 0.09967,-0.016 0.120582,0.005 0.02092,0.021 -0.01626,0.0359 -0.08257,0.0332 -0.07329,-0.003 -0.08819,-0.018 -0.03801,-0.0381 z"
     id="path4530"
     inkscape:connector-curvature="0" />
  <path
     style="fill:#ff0000;fill-opacity:1;stroke-width:0.11337678"
     d=""
     id="path4532"
     inkscape:connector-curvature="0" />
  <text
     xml:space="preserve"
     style="font-style:normal;font-weight:normal;font-size:35.55602264px;line-height:1.25;font-family:sans-serif;letter-spacing:0px;word-spacing:0px;fill:#f4cc22;fill-opacity:1;stroke:none;stroke-width:0.55556285"
     x="103.77377"
     y="36.246204"
     id="text4525"
     transform="scale(0.99878328,1.0012182)"><tspan
       sodipodi:role="line"
       id="tspan4523"
       x="103.77377"
       y="36.246204"
       style="font-style:normal;font-variant:normal;font-weight:normal;font-stretch:normal;font-size:29.63001823px;font-family:sans-serif;-inkscape-font-specification:sans-serif;letter-spacing:-1.88335776px;fill:#f4cc22;fill-opacity:1;stroke-width:0.55556285">COSTA HOMES</tspan></text>
  <text
     xml:space="preserve"
     style="font-style:normal;font-weight:normal;font-size:14.9333334px;line-height:1.25;font-family:sans-serif;letter-spacing:0.41667214px;word-spacing:0px;fill:#8b694a;fill-opacity:1;stroke:none;stroke-width:0.55556285"
     x="107.7798"
     y="53.766598"
     id="text4529"
     transform="scale(0.99878328,1.0012182)"><tspan
       sodipodi:role="line"
       id="tspan4527"
       x="107.7798"
       y="53.766598"
       style="font-size:14.9333334px;letter-spacing:0.41667214px;fill:#8b694a;fill-opacity:1;stroke-width:0.55556285"
       dx="0">by Manfred and Associates</tspan></text>
</svg>
